<svg t="1583849275379" class="icon" viewBox="0 0 1029 1024" version="1.1" xmlns="http://www.w3.org/2000/svg" p-id="3421" width="200" height="200"><path d="M229.888 606.72c-17.92 0-32.256-14.336-32.256-32.256v-320c0-17.92 14.336-31.744 32.256-31.744 17.408 0 31.744 14.336 31.744 31.744v320c0.512 17.92-13.824 32.256-31.744 32.256z m191.488 0c-17.92 0-32.256-14.336-32.256-32.256v-128c0-17.92 14.336-32.256 32.256-32.256s32.256 14.336 32.256 32.256v128c0 17.92-14.336 32.256-32.256 32.256z m191.488 0c-17.92 0-32.256-14.336-32.256-32.256v-320c0-17.92 14.336-32.256 32.256-32.256s32.256 14.336 32.256 32.256v320c-0.512 17.92-14.848 32.256-32.256 32.256z m191.488 0c-17.92 0-32.256-14.336-32.256-32.256v-128c0-17.92 14.336-32.256 32.256-32.256s32.256 14.336 32.256 32.256v128c-0.512 17.92-14.848 32.256-32.256 32.256zM749.056 1024H294.912c-17.92 0-32.256-14.336-32.256-32.256s14.336-32.256 32.256-32.256h454.144c17.92 0 32.256 14.336 32.256 32.256S766.976 1024 749.056 1024z" p-id="3422"></path><path d="M932.864 783.36h-832c-52.736 0-96.256-47.104-96.256-104.96V119.808c0-57.856 43.008-104.96 96.256-104.96h832c52.736 0 96.256 47.104 96.256 104.96V678.4c0 57.856-43.008 104.96-96.256 104.96z m-832-698.368c-17.92 0-32.256 15.872-32.256 34.816V678.4c0 19.456 14.336 34.816 32.256 34.816h832c17.408 0 32.256-15.872 32.256-34.816V119.808c0-19.456-14.336-34.816-32.256-34.816h-832z" p-id="3423"></path><path d="M229.888 606.72c-17.92 0-32.256-14.336-32.256-32.256v-320c0-17.92 14.336-31.744 32.256-31.744 17.408 0 31.744 14.336 31.744 31.744v320c0.512 17.92-13.824 32.256-31.744 32.256z m191.488 0c-17.92 0-32.256-14.336-32.256-32.256v-128c0-17.92 14.336-32.256 32.256-32.256s32.256 14.336 32.256 32.256v128c0 17.92-14.336 32.256-32.256 32.256z m191.488 0c-17.92 0-32.256-14.336-32.256-32.256v-320c0-17.92 14.336-32.256 32.256-32.256s32.256 14.336 32.256 32.256v320c-0.512 17.92-14.848 32.256-32.256 32.256z m191.488 0c-17.92 0-32.256-14.336-32.256-32.256v-128c0-17.92 14.336-32.256 32.256-32.256s32.256 14.336 32.256 32.256v128c-0.512 17.92-14.848 32.256-32.256 32.256zM749.056 1024H294.912c-17.92 0-32.256-14.336-32.256-32.256s14.336-32.256 32.256-32.256h454.144c17.92 0 32.256 14.336 32.256 32.256S766.976 1024 749.056 1024z" p-id="3424"></path></svg>