<svg t="1584115079033" class="icon" viewBox="0 0 1024 1024" version="1.1" xmlns="http://www.w3.org/2000/svg" p-id="11229" width="200" height="200"><path d="M748 680.7c-33 0-59.8 26.8-59.8 59.8s26.8 59.8 59.8 59.8 59.8-26.8 59.8-59.8c0.1-33-26.8-59.8-59.8-59.8z"  p-id="11230"></path><path d="M947.7 781.6l-25.6-19.8c0.9-7.3 1.4-14.3 1.4-21.3s-0.5-14-1.4-21.3l25.6-19.8c12-7.8 15.9-23.6 8.7-36L919 598.6c-3.6-6.2-9.4-10.7-16.3-12.5-6.5-1.7-13.3-1-19.3 2.1l-29.9 12.2c-11.3-8.5-23.7-15.6-36.9-21.2l-4.4-32.1c-0.7-14.4-12.4-25.6-26.8-25.6h-74.9c-14.4 0-26.1 11.2-26.8 25.6l-4.4 32.1c-13.2 5.6-25.6 12.7-36.9 21.2l-30-12.2c-12.8-6.5-28.4-2-35.5 10.5l-37.5 64.9c-7.1 12.4-3.3 28.2 8.7 35.9l25.6 19.8c-0.9 7.3-1.4 14.3-1.4 21.3s0.5 14 1.4 21.3l-25.6 19.8c-12.1 7.8-15.9 23.6-8.7 36l37.4 64.8c3.6 6.2 9.4 10.7 16.3 12.5 6.5 1.7 13.3 1 19.2-2.1l29.9-12.2c11.3 8.5 23.7 15.6 36.9 21.2l4.4 32.1c0.7 14.3 12.4 25.5 26.8 25.5h74.9c14.4 0 26.1-11.2 26.8-25.5l4.4-32.1c13.2-5.6 25.6-12.7 36.8-21.2l30 12.2c12.7 6.5 28.3 2 35.5-10.5l37.4-64.8c3.6-6.2 4.5-13.4 2.7-20.4-1.4-6.4-5.4-12-11.1-15.6zM748 832.2c-50.5 0-91.6-41.1-91.6-91.6 0-50.5 41.1-91.6 91.6-91.6 50.5 0 91.6 41.1 91.6 91.6 0.1 50.5-41 91.6-91.6 91.6zM600 233.3h167.9c-0.3-6.5-2.9-12.6-7.5-17.2L614.7 70.3c-4.2-4.2-10-6.6-16-6.6h-0.2v168c0 0.9 0.7 1.6 1.5 1.6z"  p-id="11231"></path><path d="M594 959.7h-0.3 0.3zM587.7 265.3c-11.7 0-21.3-9.5-21.3-21.3V63.7H100.2c-20 0-36.2 16.2-36.2 36.2v823.7c0 20 16.2 36.2 36.2 36.2h493.5c-5.7-0.4-11.3-1.4-16.8-2.8-23.5-6.3-43.1-24.3-55.2-45.4l-37.4-64.7c-20.9-36.1-14.3-80.7 13.8-109.2-17.4-17.7-26.5-41.6-26-65.9H238.8c-8.1 0-14.7-6.6-14.7-14.7v-34.6c0-8.1 6.6-14.7 14.7-14.7h257.5l25.4-44c4.3-7.5 9.6-14.1 15.7-20H238.8c-8.1 0-14.7-6.6-14.7-14.7v-34.6c0-8.1 6.6-14.7 14.7-14.7h354.6c8.1 0 14.7 6.6 14.7 14.7v24.2c5 0.4 10.1 1.3 15 2.5 10.6-38.6 45.9-66.6 87.6-66.6h57.5V265.3H587.7zM608.1 401c0 8.1-6.6 14.7-14.7 14.7H238.8c-8.1 0-14.7-6.6-14.7-14.7v-34.6c0-8.1 6.6-14.7 14.7-14.7h354.6c8.1 0 14.7 6.6 14.7 14.7V401z"  p-id="11232"></path></svg>