<svg t="1584114549720" class="icon" viewBox="0 0 1075 1024" version="1.1" xmlns="http://www.w3.org/2000/svg" p-id="4718" width="200" height="200"><path d="M717.476428 779.982226a33.657624 33.657624 0 0 0 0-67.315248h-372.926473a33.657624 33.657624 0 0 0 0 67.315248z" p-id="4719"></path><path d="M955.189007 583.219757a33.657624 33.657624 0 0 0-33.657624 33.657624v283.711331a56.09604 56.09604 0 0 1-56.09604 56.09604H196.613479a56.09604 56.09604 0 0 1-56.09604-56.09604V616.877381a33.657624 33.657624 0 0 0-67.315248 0v283.711331a123.568357 123.568357 0 0 0 123.411288 123.411288h668.821864a123.568357 123.568357 0 0 0 123.411288-123.411288V616.877381a33.657624 33.657624 0 0 0-33.657624-33.657624zM1060.53737 264.145482a20.553589 20.553589 0 0 0-1.009728-2.243842l-0.179508-0.381453-1.705319-3.949161a26.926099 26.926099 0 0 0-0.830222-2.243842l-72.767783-178.520037A122.96252 122.96252 0 0 0 869.765958 0.000449H205.790791A122.917643 122.917643 0 0 0 91.556815 76.76227L21.773341 247.630807l-0.516083 1.391182-5.317905 12.789897a209.283106 209.283106 0 0 0 17.389773 193.419146 211.571824 211.571824 0 0 0 166.807184 97.853932c3.994038 0.291699 7.808569 0.336576 12.812335 0.314138a208.071431 208.071431 0 0 0 159.64933-80.531475 209.103598 209.103598 0 0 0 329.732523 0.13463 208.968968 208.968968 0 0 0 161.107826 80.396845c3.836969 0 7.673938 0 11.510908-0.2917a211.684016 211.684016 0 0 0 185.610577-288.96192zM985.054539 419.598827a143.044902 143.044902 0 0 1-114.03203 66.238204h-0.695591c-2.243842 0.179507-4.644752 0.13463-6.170564 0.157069a140.980568 140.980568 0 0 1-130.142813-93.186741 33.657624 33.657624 0 0 0-31.59329-22.169155 33.657624 33.657624 0 0 0-31.593289 22.079401 141.922981 141.922981 0 0 1-266.792766-0.42633 33.657624 33.657624 0 0 0-63.366087 0 140.554238 140.554238 0 0 1-128.751631 93.702825c-2.356034 0-4.644752 0-7.696376-0.179507a144.436084 144.436084 0 0 1-126.036583-198.378036l5.609604-13.463049 0.628276-1.70532 69.559089-170.038316A55.871656 55.871656 0 0 1 205.790791 67.315697h663.975167a55.938971 55.938971 0 0 1 51.967371 34.914175l72.161946 176.904471c0.269261 0.875098 0.605837 1.727758 0.942413 2.55798l2.468226 5.833988 0.134631 0.291699c0.269261 0.740468 0.605837 1.503374 0.919975 2.243842A142.50638 142.50638 0 0 1 985.054539 419.598827z" p-id="4720"></path></svg>