<svg t="1584115247710" class="icon" viewBox="0 0 1024 1024" version="1.1" xmlns="http://www.w3.org/2000/svg" p-id="13437" width="200" height="200"><path d="M804.571429 18.285714c70.656 0 128 57.344 128 128v731.428572A128 128 0 0 1 804.571429 1005.714286H219.428571A128 128 0 0 1 91.428571 877.714286v-36.571429h109.714286v36.571429c0 10.093714 8.192 18.285714 18.285714 18.285714h585.142858a18.285714 18.285714 0 0 0 18.285714-18.285714V146.285714a18.285714 18.285714 0 0 0-18.285714-18.285714H219.428571a18.285714 18.285714 0 0 0-18.285714 18.285714v41.764572h-109.714286V146.285714c0-70.656 57.344-128 128-128h585.142858zM197.851429 718.189714a54.857143 54.857143 0 0 1 0 109.714286h-109.714286a54.857143 54.857143 0 0 1 0-109.714286h109.714286z m517.705142-381.952a54.857143 54.857143 0 0 1 0 77.531429L442.514286 686.884571a36.571429 36.571429 0 0 1-17.042286 9.581715l-58.002286 14.409143a21.942857 21.942857 0 0 1-26.550857-26.550858l14.409143-58.002285a36.571429 36.571429 0 0 1 9.581714-17.042286l273.115429-273.042286a54.857143 54.857143 0 0 1 77.531428 0zM201.142857 585.142857v109.714286h-109.714286V585.142857h109.714286z m-3.291428-127.122286a54.857143 54.857143 0 0 1 0 109.714286h-109.714286a54.857143 54.857143 0 1 1 0-109.714286h109.714286z m3.291428-123.684571V438.857143h-109.714286V334.336h109.714286z m-3.291428-128.292571a54.857143 54.857143 0 0 1 0 109.714285h-109.714286a54.857143 54.857143 0 1 1 0-109.714285h109.714286z" p-id="13438"></path></svg>