<svg t="1584114829183" class="icon" viewBox="0 0 1024 1024" version="1.1" xmlns="http://www.w3.org/2000/svg" p-id="6389" width="200" height="200"><path d="M825.6 57.6H768c-12.8 0-32 12.8-32 25.6s19.2 32 32 32h57.6c32 0 57.6 25.6 57.6 57.6v697.6c0 38.4-25.6 57.6-57.6 57.6H217.6c-32 0-70.4-25.6-70.4-57.6V179.2c0-38.4 25.6-57.6 57.6-57.6h70.4c12.8 0 19.2-19.2 19.2-32 0-19.2-6.4-25.6-19.2-25.6H198.4C121.6 64 83.2 115.2 83.2 185.6v691.2c0 76.8 44.8 128 121.6 128h608c76.8 0 121.6-44.8 121.6-128V179.2c0-70.4-38.4-121.6-108.8-121.6zM268.8 332.8c0 19.2 12.8 32 32 32h422.4c12.8 0 32-12.8 32-32s-12.8-32-32-32H300.8c-12.8 0-32 12.8-32 32z m454.4 134.4H300.8c-12.8 0-32 12.8-32 32s12.8 32 32 32h422.4c12.8 0 32-12.8 32-32s-19.2-32-32-32z m0 179.2H300.8c-12.8 0-32 12.8-32 32s12.8 32 32 32h422.4c12.8 0 32-12.8 32-32s-19.2-32-32-32z m-307.2-512h198.4c25.6 0 44.8-25.6 44.8-51.2S633.6 25.6 608 25.6h-192c-25.6 0-44.8 25.6-44.8 51.2s19.2 57.6 44.8 57.6z" p-id="6390"></path></svg>