<svg t="1584115185078" class="icon" viewBox="0 0 1024 1024" version="1.1" xmlns="http://www.w3.org/2000/svg" p-id="12050" width="200" height="200"><path d="M228.352 318.464l157.184-1.536 0.512 68.096-157.184 1.536-0.512-68.096z m0.512 158.72l222.208-1.536 0.512 68.096-222.208 1.536-0.512-68.096z m0 190.976l441.856-2.048 0.512 68.096-441.856 2.048-0.512-68.096z" p-id="12051"></path><path d="M830.464 952.832H140.8c-18.944 0-34.304-15.36-34.304-34.304V152.576c0-18.944 15.36-34.304 34.304-34.304h438.784a34.304 34.304 0 0 1 0 68.608h-404.48v697.344h621.056V486.912a34.304 34.304 0 0 1 68.608 0v431.616c-0.512 18.944-15.872 34.304-34.304 34.304z" p-id="12052"></path><path d="M709.12 559.616l-58.88-34.304L845.312 189.44l-64-37.376-195.072 335.872-58.88-34.304 212.48-365.056c9.728-16.384 30.208-22.016 46.592-12.288l123.392 71.68c16.384 9.728 22.016 30.208 12.288 46.592l-212.992 365.056z" p-id="12053"></path><path d="M588.288 591.872c-15.36 0-29.184-10.24-32.768-25.6l-29.184-110.08 66.048-17.408 20.48 76.8 76.8-20.48 17.408 66.048-110.08 29.184c-2.56 1.024-5.632 1.536-8.704 1.536z" p-id="12054"></path></svg>